<svg version="1" xmlns="http://www.w3.org/2000/svg" width="310.667" height="310.667" viewBox="0 0 233.000000 233.000000"><path d="M134 37.6c-5.8 2.4-11.9 5.1-13.5 5.9-1.7.8-11.6 5-22 9.5-10.5 4.5-19.8 8.9-20.8 9.9-2.1 2-2.1 5.6-1.2 48.6.6 26.9.8 28.5 3.8 31.2 1.2 1.1 17.4 11.3 36 22.7 25.8 16 34.5 20.8 37 20.8 3.9 0 68.5-27.6 70.8-30.3 1.7-1.8 1.7-9.6.5-59.3-.5-19.1-.2-18.5-14.2-27.2-5.4-3.4-20.9-12.9-34.3-21.3C156.2 35.8 151 33 148.1 33c-2 .1-8.3 2.1-14.1 4.6zm44.6 30L207 85.2l.1 4.7c.1 7.1.9 36.5 1.2 46.8.3 8.8.3 9.2-1.9 9.7-1.2.3-5.7 2.2-9.8 4.1-4.2 1.9-7.8 3.5-8.1 3.5-.3 0-2.4.9-4.8 2-2.3 1-10.3 4.6-17.8 7.8l-13.6 6-12.9-8c-7.1-4.4-19.9-12.3-28.4-17.6-8.5-5.2-15.8-10-16.2-10.6-.4-.6-.7-2.2-.6-3.6 0-1.4-.2-14.7-.6-29.5l-.7-27 11.8-4.9c6.5-2.7 14.3-6 17.3-7.4 13.2-6 25.6-11.1 26.9-11.2.8 0 14.2 7.9 29.7 17.6z"/><path d="M99.7 77.7c-.3.4-.4 3.8-.3 7.6l.2 6.7 18 11.1c9.8 6.2 18.3 11.5 18.8 12s1.1 9.3 1.3 19.6c.4 16 .7 18.9 2.1 20 3.6 2.8 12.4 7.4 13 6.8.4-.3.5-6.5.3-13.8-.8-37.5-.8-36.7-2.7-38.8-1-1.1-11-7.7-22.3-14.7-28.7-17.8-27.9-17.4-28.4-16.5zM52.2 89.5c-7.8 3.5-15 6.9-15.8 7.6-1.4 1.2-1.6 4.6-1.1 30.2.5 23.4.9 29.3 2.1 31.2 1.7 2.6 53.3 35.1 57.3 36.1 1.7.5 6.9-1.3 18.4-6.1 8.7-3.8 15.9-7.1 15.9-7.4 0-.3-3.2-2.6-7.1-5l-7.1-4.3-9.8 4.1-9.7 4.2-22.2-13.6L51 152.8l-.1-4.6c0-2.6-.3-13.1-.5-23.3-.4-17.2-.3-18.7 1.3-19.2 1-.4 5.4-2.1 9.8-4l8-3.3.3-7.7c.3-6.9.1-7.7-1.5-7.6-1 0-8.2 2.9-16.1 6.4z"/><path d="M14.9 119.3c-6.4 2.9-12.4 5.8-13.3 6.6-1.5 1.3-1.6 3.7-1.1 23.4.3 12.1 1 22.7 1.5 23.6 1 1.9 41.3 27.1 44.2 27.6 2 .4 4.6-.5 19.6-6.8l8.2-3.4-5.7-3.8c-3.1-2.1-6.6-3.7-7.7-3.7-1.2 0-4.7 1.2-7.9 2.6-4.8 2.2-6.2 2.4-8 1.5-7.5-4-29.9-18.5-30.5-19.8-.4-.9-.7-8.8-.7-17.5v-15.9l7.5-3.2 7.5-3.2.3-6.6c.2-5 0-6.7-1-6.6-.7 0-6.5 2.4-12.9 5.2zM56.4 120.7l.2 6.7 4.4 2.8c2.5 1.6 5.8 3.5 7.3 4.4l2.8 1.5-.2-6.7-.2-6.6-5.1-3.3c-10-6.3-9.4-6.4-9.2 1.2zM78 155.6v6.5l6.3 3.9 6.2 4 .3-5.7c.2-3 .1-6.1-.1-6.8-.3-.6-3.2-2.8-6.6-4.8l-6.1-3.6v6.5z"/></svg>